<svg width="45" height="45" viewBox="0 0 45 45" fill="none" xmlns="http://www.w3.org/2000/svg">
<path fill-rule="evenodd" clip-rule="evenodd" d="M22.5 45C34.9264 45 45 34.9264 45 22.5C45 10.0736 34.9264 0 22.5 0C10.0736 0 0 10.0736 0 22.5C0 34.9264 10.0736 45 22.5 45Z" fill="#E0DDF5"/>
<path fill-rule="evenodd" clip-rule="evenodd" d="M17.5951 13.3655L21.7123 17.4827C21.8127 17.5867 21.9614 17.6284 22.1013 17.5918C22.2411 17.5552 22.3504 17.446 22.387 17.3061C22.4236 17.1663 22.3819 17.0175 22.2779 16.9171L17.4779 12.1171C17.3217 11.961 17.0685 11.961 16.9123 12.1171L12.1123 16.9171C11.9607 17.0741 11.9629 17.3235 12.1172 17.4778C12.2715 17.6321 12.5209 17.6343 12.6779 17.4827L16.7951 13.3655V28.3999C16.7951 28.6208 16.9742 28.7999 17.1951 28.7999C17.416 28.7999 17.5951 28.6208 17.5951 28.3999V13.3655ZM31.3123 26.5171C31.4685 26.361 31.7217 26.361 31.8779 26.5171C32.034 26.6733 32.034 26.9265 31.8779 27.0827L27.0779 31.8827C26.9217 32.0389 26.6685 32.0389 26.5123 31.8827L21.7123 27.0827C21.5607 26.9258 21.5629 26.6763 21.7172 26.522C21.8715 26.3677 22.1209 26.3655 22.2779 26.5171L26.3951 30.6343V15.5999C26.3951 15.379 26.5742 15.1999 26.7951 15.1999C27.016 15.1999 27.1951 15.379 27.1951 15.5999V30.6343L31.3123 26.5171Z" fill="black"/>
</svg>
