<svg width="193" height="92" viewBox="0 0 193 92" fill="none" xmlns="http://www.w3.org/2000/svg">
<path d="M67 6H192" stroke="#E5E5E5" stroke-linecap="square"/>
<path d="M67 26H192" stroke="#E5E5E5" stroke-linecap="square"/>
<path d="M67 46H192" stroke="#E5E5E5" stroke-linecap="square"/>
<path d="M67 66H192" stroke="#E5E5E5" stroke-linecap="square"/>
<path d="M67 86H192" stroke="#E5E5E5" stroke-linecap="square"/>
<path d="M48.9739 4.77888C48.9085 4.56758 48.7289 4.41751 48.5164 4.39753L45.6301 4.12405L44.4888 1.33653C44.4046 1.13224 44.213 1 44 1C43.7871 1 43.5954 1.13224 43.5113 1.33701L42.37 4.12405L39.4833 4.39753C39.2712 4.41799 39.092 4.56758 39.0262 4.77888C38.9603 4.99018 39.0211 5.22193 39.1816 5.36802L41.3633 7.36458L40.7199 10.3217C40.6729 10.5391 40.7537 10.7639 40.9266 10.8943C41.0195 10.9643 41.1283 11 41.2379 11C41.3324 11 41.4262 10.9734 41.5104 10.9209L44 9.36815L46.4888 10.9209C46.6709 11.0352 46.9005 11.0248 47.073 10.8943C47.246 10.7635 47.3268 10.5386 47.2797 10.3217L46.6364 7.36458L48.818 5.36842C48.9785 5.22193 49.0398 4.99057 48.9739 4.77888Z" fill="#FFC107"/>
<path d="M61.9739 4.77888C61.9085 4.56758 61.7289 4.41751 61.5164 4.39753L58.6301 4.12405L57.4888 1.33653C57.4046 1.13224 57.213 1 57 1C56.7871 1 56.5954 1.13224 56.5113 1.33701L55.37 4.12405L52.4833 4.39753C52.2712 4.41799 52.092 4.56758 52.0262 4.77888C51.9603 4.99018 52.0211 5.22193 52.1816 5.36802L54.3633 7.36458L53.7199 10.3217C53.6729 10.5391 53.7537 10.7639 53.9266 10.8943C54.0195 10.9643 54.1283 11 54.2379 11C54.3324 11 54.4262 10.9734 54.5104 10.9209L57 9.36815L59.4888 10.9209C59.6709 11.0352 59.9005 11.0248 60.073 10.8943C60.246 10.7635 60.3268 10.5386 60.2797 10.3217L59.6364 7.36458L61.818 5.36842C61.9785 5.22193 62.0398 4.99057 61.9739 4.77888Z" fill="#FFC107"/>
<path d="M35.9739 4.77888C35.9085 4.56758 35.7289 4.41751 35.5164 4.39753L32.6301 4.12405L31.4888 1.33653C31.4046 1.13224 31.213 1 31 1C30.7871 1 30.5954 1.13224 30.5113 1.33701L29.37 4.12405L26.4833 4.39753C26.2712 4.41799 26.092 4.56758 26.0262 4.77888C25.9603 4.99018 26.0211 5.22193 26.1816 5.36802L28.3633 7.36458L27.7199 10.3217C27.6729 10.5391 27.7537 10.7639 27.9266 10.8943C28.0195 10.9643 28.1283 11 28.2379 11C28.3324 11 28.4262 10.9734 28.5104 10.9209L31 9.36815L33.4888 10.9209C33.6709 11.0352 33.9005 11.0248 34.073 10.8943C34.246 10.7635 34.3268 10.5386 34.2797 10.3217L33.6364 7.36458L35.818 5.36842C35.9785 5.22193 36.0398 4.99057 35.9739 4.77888Z" fill="#FFC107"/>
<path d="M22.9739 4.77888C22.9085 4.56758 22.7289 4.41751 22.5164 4.39753L19.6301 4.12405L18.4888 1.33653C18.4046 1.13224 18.213 1 18 1C17.7871 1 17.5954 1.13224 17.5113 1.33701L16.37 4.12405L13.4833 4.39753C13.2712 4.41799 13.092 4.56758 13.0262 4.77888C12.9603 4.99018 13.0211 5.22193 13.1816 5.36802L15.3633 7.36458L14.7199 10.3217C14.6729 10.5391 14.7537 10.7639 14.9266 10.8943C15.0195 10.9643 15.1283 11 15.2379 11C15.3324 11 15.4262 10.9734 15.5104 10.9209L18 9.36815L20.4888 10.9209C20.6709 11.0352 20.9005 11.0248 21.073 10.8943C21.246 10.7635 21.3268 10.5386 21.2797 10.3217L20.6364 7.36458L22.818 5.36842C22.9785 5.22193 23.0398 4.99057 22.9739 4.77888Z" fill="#FFC107"/>
<path d="M9.97391 4.77888C9.90845 4.56758 9.72885 4.41751 9.51637 4.39753L6.6301 4.12405L5.48879 1.33653C5.40464 1.13224 5.21298 1 5.00004 1C4.7871 1 4.59544 1.13224 4.51129 1.33701L3.36998 4.12405L0.483256 4.39753C0.271154 4.41799 0.0920114 4.56758 0.0261682 4.77888C-0.0396751 4.99018 0.0211326 5.22193 0.181583 5.36802L2.36326 7.36458L1.71993 10.3217C1.67286 10.5391 1.75373 10.7639 1.92662 10.8943C2.01955 10.9643 2.12827 11 2.23791 11C2.33244 11 2.4262 10.9734 2.51036 10.9209L5.00004 9.36815L7.48881 10.9209C7.67093 11.0352 7.9005 11.0248 8.073 10.8943C8.24597 10.7635 8.32676 10.5386 8.27969 10.3217L7.63636 7.36458L9.81804 5.36842C9.97849 5.22193 10.0398 4.99057 9.97391 4.77888Z" fill="#FFC107"/>
<path d="M48.9739 24.7789C48.9085 24.5676 48.7289 24.4175 48.5164 24.3975L45.6301 24.1241L44.4888 21.3365C44.4046 21.1322 44.213 21 44 21C43.7871 21 43.5954 21.1322 43.5113 21.337L42.37 24.1241L39.4833 24.3975C39.2712 24.418 39.092 24.5676 39.0262 24.7789C38.9603 24.9902 39.0211 25.2219 39.1816 25.368L41.3633 27.3646L40.7199 30.3217C40.6729 30.5391 40.7537 30.7639 40.9266 30.8943C41.0195 30.9643 41.1283 31 41.2379 31C41.3324 31 41.4262 30.9734 41.5104 30.9209L44 29.3682L46.4888 30.9209C46.6709 31.0352 46.9005 31.0248 47.073 30.8943C47.246 30.7635 47.3268 30.5386 47.2797 30.3217L46.6364 27.3646L48.818 25.3684C48.9785 25.2219 49.0398 24.9906 48.9739 24.7789Z" fill="#FFC107"/>
<path d="M61.9739 24.7789C61.9085 24.5676 61.7289 24.4175 61.5164 24.3975L58.6301 24.1241L57.4888 21.3365C57.4046 21.1322 57.213 21 57 21C56.7871 21 56.5954 21.1322 56.5113 21.337L55.37 24.1241L52.4833 24.3975C52.2712 24.418 52.092 24.5676 52.0262 24.7789C51.9603 24.9902 52.0211 25.2219 52.1816 25.368L54.3633 27.3646L53.7199 30.3217C53.6729 30.5391 53.7537 30.7639 53.9266 30.8943C54.0195 30.9643 54.1283 31 54.2379 31C54.3324 31 54.4262 30.9734 54.5104 30.9209L57 29.3682L59.4888 30.9209C59.6709 31.0352 59.9005 31.0248 60.073 30.8943C60.246 30.7635 60.3268 30.5386 60.2797 30.3217L59.6364 27.3646L61.818 25.3684C61.9785 25.2219 62.0398 24.9906 61.9739 24.7789Z" fill="#E0DDF5"/>
<path d="M35.9739 24.7789C35.9085 24.5676 35.7289 24.4175 35.5164 24.3975L32.6301 24.1241L31.4888 21.3365C31.4046 21.1322 31.213 21 31 21C30.7871 21 30.5954 21.1322 30.5113 21.337L29.37 24.1241L26.4833 24.3975C26.2712 24.418 26.092 24.5676 26.0262 24.7789C25.9603 24.9902 26.0211 25.2219 26.1816 25.368L28.3633 27.3646L27.7199 30.3217C27.6729 30.5391 27.7537 30.7639 27.9266 30.8943C28.0195 30.9643 28.1283 31 28.2379 31C28.3324 31 28.4262 30.9734 28.5104 30.9209L31 29.3682L33.4888 30.9209C33.6709 31.0352 33.9005 31.0248 34.073 30.8943C34.246 30.7635 34.3268 30.5386 34.2797 30.3217L33.6364 27.3646L35.818 25.3684C35.9785 25.2219 36.0398 24.9906 35.9739 24.7789Z" fill="#FFC107"/>
<path d="M22.9739 24.7789C22.9085 24.5676 22.7289 24.4175 22.5164 24.3975L19.6301 24.1241L18.4888 21.3365C18.4046 21.1322 18.213 21 18 21C17.7871 21 17.5954 21.1322 17.5113 21.337L16.37 24.1241L13.4833 24.3975C13.2712 24.418 13.092 24.5676 13.0262 24.7789C12.9603 24.9902 13.0211 25.2219 13.1816 25.368L15.3633 27.3646L14.7199 30.3217C14.6729 30.5391 14.7537 30.7639 14.9266 30.8943C15.0195 30.9643 15.1283 31 15.2379 31C15.3324 31 15.4262 30.9734 15.5104 30.9209L18 29.3682L20.4888 30.9209C20.6709 31.0352 20.9005 31.0248 21.073 30.8943C21.246 30.7635 21.3268 30.5386 21.2797 30.3217L20.6364 27.3646L22.818 25.3684C22.9785 25.2219 23.0398 24.9906 22.9739 24.7789Z" fill="#FFC107"/>
<path d="M9.97391 24.7789C9.90845 24.5676 9.72885 24.4175 9.51637 24.3975L6.6301 24.1241L5.48879 21.3365C5.40464 21.1322 5.21298 21 5.00004 21C4.7871 21 4.59544 21.1322 4.51129 21.337L3.36998 24.1241L0.483256 24.3975C0.271154 24.418 0.0920114 24.5676 0.0261682 24.7789C-0.0396751 24.9902 0.0211326 25.2219 0.181583 25.368L2.36326 27.3646L1.71993 30.3217C1.67286 30.5391 1.75373 30.7639 1.92662 30.8943C2.01955 30.9643 2.12827 31 2.23791 31C2.33244 31 2.4262 30.9734 2.51036 30.9209L5.00004 29.3682L7.48881 30.9209C7.67093 31.0352 7.9005 31.0248 8.073 30.8943C8.24597 30.7635 8.32676 30.5386 8.27969 30.3217L7.63636 27.3646L9.81804 25.3684C9.97849 25.2219 10.0398 24.9906 9.97391 24.7789Z" fill="#FFC107"/>
<path d="M48.9739 44.7789C48.9085 44.5676 48.7289 44.4175 48.5164 44.3975L45.6301 44.1241L44.4888 41.3365C44.4046 41.1322 44.213 41 44 41C43.7871 41 43.5954 41.1322 43.5113 41.337L42.37 44.1241L39.4833 44.3975C39.2712 44.418 39.092 44.5676 39.0262 44.7789C38.9603 44.9902 39.0211 45.2219 39.1816 45.368L41.3633 47.3646L40.7199 50.3217C40.6729 50.5391 40.7537 50.7639 40.9266 50.8943C41.0195 50.9643 41.1283 51 41.2379 51C41.3324 51 41.4262 50.9734 41.5104 50.9209L44 49.3682L46.4888 50.9209C46.6709 51.0352 46.9005 51.0248 47.073 50.8943C47.246 50.7635 47.3268 50.5386 47.2797 50.3217L46.6364 47.3646L48.818 45.3684C48.9785 45.2219 49.0398 44.9906 48.9739 44.7789Z" fill="#E0DDF5"/>
<path d="M61.9739 44.7789C61.9085 44.5676 61.7289 44.4175 61.5164 44.3975L58.6301 44.1241L57.4888 41.3365C57.4046 41.1322 57.213 41 57 41C56.7871 41 56.5954 41.1322 56.5113 41.337L55.37 44.1241L52.4833 44.3975C52.2712 44.418 52.092 44.5676 52.0262 44.7789C51.9603 44.9902 52.0211 45.2219 52.1816 45.368L54.3633 47.3646L53.7199 50.3217C53.6729 50.5391 53.7537 50.7639 53.9266 50.8943C54.0195 50.9643 54.1283 51 54.2379 51C54.3324 51 54.4262 50.9734 54.5104 50.9209L57 49.3682L59.4888 50.9209C59.6709 51.0352 59.9005 51.0248 60.073 50.8943C60.246 50.7635 60.3268 50.5386 60.2797 50.3217L59.6364 47.3646L61.818 45.3684C61.9785 45.2219 62.0398 44.9906 61.9739 44.7789Z" fill="#E0DDF5"/>
<path d="M35.9739 44.7789C35.9085 44.5676 35.7289 44.4175 35.5164 44.3975L32.6301 44.1241L31.4888 41.3365C31.4046 41.1322 31.213 41 31 41C30.7871 41 30.5954 41.1322 30.5113 41.337L29.37 44.1241L26.4833 44.3975C26.2712 44.418 26.092 44.5676 26.0262 44.7789C25.9603 44.9902 26.0211 45.2219 26.1816 45.368L28.3633 47.3646L27.7199 50.3217C27.6729 50.5391 27.7537 50.7639 27.9266 50.8943C28.0195 50.9643 28.1283 51 28.2379 51C28.3324 51 28.4262 50.9734 28.5104 50.9209L31 49.3682L33.4888 50.9209C33.6709 51.0352 33.9005 51.0248 34.073 50.8943C34.246 50.7635 34.3268 50.5386 34.2797 50.3217L33.6364 47.3646L35.818 45.3684C35.9785 45.2219 36.0398 44.9906 35.9739 44.7789Z" fill="#FFC107"/>
<path d="M22.9739 44.7789C22.9085 44.5676 22.7289 44.4175 22.5164 44.3975L19.6301 44.1241L18.4888 41.3365C18.4046 41.1322 18.213 41 18 41C17.7871 41 17.5954 41.1322 17.5113 41.337L16.37 44.1241L13.4833 44.3975C13.2712 44.418 13.092 44.5676 13.0262 44.7789C12.9603 44.9902 13.0211 45.2219 13.1816 45.368L15.3633 47.3646L14.7199 50.3217C14.6729 50.5391 14.7537 50.7639 14.9266 50.8943C15.0195 50.9643 15.1283 51 15.2379 51C15.3324 51 15.4262 50.9734 15.5104 50.9209L18 49.3682L20.4888 50.9209C20.6709 51.0352 20.9005 51.0248 21.073 50.8943C21.246 50.7635 21.3268 50.5386 21.2797 50.3217L20.6364 47.3646L22.818 45.3684C22.9785 45.2219 23.0398 44.9906 22.9739 44.7789Z" fill="#FFC107"/>
<path d="M9.97391 44.7789C9.90845 44.5676 9.72885 44.4175 9.51637 44.3975L6.6301 44.1241L5.48879 41.3365C5.40464 41.1322 5.21298 41 5.00004 41C4.7871 41 4.59544 41.1322 4.51129 41.337L3.36998 44.1241L0.483256 44.3975C0.271154 44.418 0.0920114 44.5676 0.0261682 44.7789C-0.0396751 44.9902 0.0211326 45.2219 0.181583 45.368L2.36326 47.3646L1.71993 50.3217C1.67286 50.5391 1.75373 50.7639 1.92662 50.8943C2.01955 50.9643 2.12827 51 2.23791 51C2.33244 51 2.4262 50.9734 2.51036 50.9209L5.00004 49.3682L7.48881 50.9209C7.67093 51.0352 7.9005 51.0248 8.073 50.8943C8.24597 50.7635 8.32676 50.5386 8.27969 50.3217L7.63636 47.3646L9.81804 45.3684C9.97849 45.2219 10.0398 44.9906 9.97391 44.7789Z" fill="#FFC107"/>
<path d="M48.9739 64.7789C48.9085 64.5676 48.7289 64.4175 48.5164 64.3975L45.6301 64.1241L44.4888 61.3365C44.4046 61.1322 44.213 61 44 61C43.7871 61 43.5954 61.1322 43.5113 61.337L42.37 64.1241L39.4833 64.3975C39.2712 64.418 39.092 64.5676 39.0262 64.7789C38.9603 64.9902 39.0211 65.2219 39.1816 65.368L41.3633 67.3646L40.7199 70.3217C40.6729 70.5391 40.7537 70.7639 40.9266 70.8943C41.0195 70.9643 41.1283 71 41.2379 71C41.3324 71 41.4262 70.9734 41.5104 70.9209L44 69.3682L46.4888 70.9209C46.6709 71.0352 46.9005 71.0248 47.073 70.8943C47.246 70.7635 47.3268 70.5386 47.2797 70.3217L46.6364 67.3646L48.818 65.3684C48.9785 65.2219 49.0398 64.9906 48.9739 64.7789Z" fill="#E0DDF5"/>
<path d="M61.9739 64.7789C61.9085 64.5676 61.7289 64.4175 61.5164 64.3975L58.6301 64.1241L57.4888 61.3365C57.4046 61.1322 57.213 61 57 61C56.7871 61 56.5954 61.1322 56.5113 61.337L55.37 64.1241L52.4833 64.3975C52.2712 64.418 52.092 64.5676 52.0262 64.7789C51.9603 64.9902 52.0211 65.2219 52.1816 65.368L54.3633 67.3646L53.7199 70.3217C53.6729 70.5391 53.7537 70.7639 53.9266 70.8943C54.0195 70.9643 54.1283 71 54.2379 71C54.3324 71 54.4262 70.9734 54.5104 70.9209L57 69.3682L59.4888 70.9209C59.6709 71.0352 59.9005 71.0248 60.073 70.8943C60.246 70.7635 60.3268 70.5386 60.2797 70.3217L59.6364 67.3646L61.818 65.3684C61.9785 65.2219 62.0398 64.9906 61.9739 64.7789Z" fill="#E0DDF5"/>
<path d="M35.9739 64.7789C35.9085 64.5676 35.7289 64.4175 35.5164 64.3975L32.6301 64.1241L31.4888 61.3365C31.4046 61.1322 31.213 61 31 61C30.7871 61 30.5954 61.1322 30.5113 61.337L29.37 64.1241L26.4833 64.3975C26.2712 64.418 26.092 64.5676 26.0262 64.7789C25.9603 64.9902 26.0211 65.2219 26.1816 65.368L28.3633 67.3646L27.7199 70.3217C27.6729 70.5391 27.7537 70.7639 27.9266 70.8943C28.0195 70.9643 28.1283 71 28.2379 71C28.3324 71 28.4262 70.9734 28.5104 70.9209L31 69.3682L33.4888 70.9209C33.6709 71.0352 33.9005 71.0248 34.073 70.8943C34.246 70.7635 34.3268 70.5386 34.2797 70.3217L33.6364 67.3646L35.818 65.3684C35.9785 65.2219 36.0398 64.9906 35.9739 64.7789Z" fill="#E0DDF5"/>
<path d="M22.9739 64.7789C22.9085 64.5676 22.7289 64.4175 22.5164 64.3975L19.6301 64.1241L18.4888 61.3365C18.4046 61.1322 18.213 61 18 61C17.7871 61 17.5954 61.1322 17.5113 61.337L16.37 64.1241L13.4833 64.3975C13.2712 64.418 13.092 64.5676 13.0262 64.7789C12.9603 64.9902 13.0211 65.2219 13.1816 65.368L15.3633 67.3646L14.7199 70.3217C14.6729 70.5391 14.7537 70.7639 14.9266 70.8943C15.0195 70.9643 15.1283 71 15.2379 71C15.3324 71 15.4262 70.9734 15.5104 70.9209L18 69.3682L20.4888 70.9209C20.6709 71.0352 20.9005 71.0248 21.073 70.8943C21.246 70.7635 21.3268 70.5386 21.2797 70.3217L20.6364 67.3646L22.818 65.3684C22.9785 65.2219 23.0398 64.9906 22.9739 64.7789Z" fill="#FFC107"/>
<path d="M9.97391 64.7789C9.90845 64.5676 9.72885 64.4175 9.51637 64.3975L6.6301 64.1241L5.48879 61.3365C5.40464 61.1322 5.21298 61 5.00004 61C4.7871 61 4.59544 61.1322 4.51129 61.337L3.36998 64.1241L0.483256 64.3975C0.271154 64.418 0.0920114 64.5676 0.0261682 64.7789C-0.0396751 64.9902 0.0211326 65.2219 0.181583 65.368L2.36326 67.3646L1.71993 70.3217C1.67286 70.5391 1.75373 70.7639 1.92662 70.8943C2.01955 70.9643 2.12827 71 2.23791 71C2.33244 71 2.4262 70.9734 2.51036 70.9209L5.00004 69.3682L7.48881 70.9209C7.67093 71.0352 7.9005 71.0248 8.073 70.8943C8.24597 70.7635 8.32676 70.5386 8.27969 70.3217L7.63636 67.3646L9.81804 65.3684C9.97849 65.2219 10.0398 64.9906 9.97391 64.7789Z" fill="#FFC107"/>
<path d="M48.9739 84.7789C48.9085 84.5676 48.7289 84.4175 48.5164 84.3975L45.6301 84.1241L44.4888 81.3365C44.4046 81.1322 44.213 81 44 81C43.7871 81 43.5954 81.1322 43.5113 81.337L42.37 84.1241L39.4833 84.3975C39.2712 84.418 39.092 84.5676 39.0262 84.7789C38.9603 84.9902 39.0211 85.2219 39.1816 85.368L41.3633 87.3646L40.7199 90.3217C40.6729 90.5391 40.7537 90.7639 40.9266 90.8943C41.0195 90.9643 41.1283 91 41.2379 91C41.3324 91 41.4262 90.9734 41.5104 90.9209L44 89.3682L46.4888 90.9209C46.6709 91.0352 46.9005 91.0248 47.073 90.8943C47.246 90.7635 47.3268 90.5386 47.2797 90.3217L46.6364 87.3646L48.818 85.3684C48.9785 85.2219 49.0398 84.9906 48.9739 84.7789Z" fill="#E0DDF5"/>
<path d="M61.9739 84.7789C61.9085 84.5676 61.7289 84.4175 61.5164 84.3975L58.6301 84.1241L57.4888 81.3365C57.4046 81.1322 57.213 81 57 81C56.7871 81 56.5954 81.1322 56.5113 81.337L55.37 84.1241L52.4833 84.3975C52.2712 84.418 52.092 84.5676 52.0262 84.7789C51.9603 84.9902 52.0211 85.2219 52.1816 85.368L54.3633 87.3646L53.7199 90.3217C53.6729 90.5391 53.7537 90.7639 53.9266 90.8943C54.0195 90.9643 54.1283 91 54.2379 91C54.3324 91 54.4262 90.9734 54.5104 90.9209L57 89.3682L59.4888 90.9209C59.6709 91.0352 59.9005 91.0248 60.073 90.8943C60.246 90.7635 60.3268 90.5386 60.2797 90.3217L59.6364 87.3646L61.818 85.3684C61.9785 85.2219 62.0398 84.9906 61.9739 84.7789Z" fill="#E0DDF5"/>
<path d="M35.9739 84.7789C35.9085 84.5676 35.7289 84.4175 35.5164 84.3975L32.6301 84.1241L31.4888 81.3365C31.4046 81.1322 31.213 81 31 81C30.7871 81 30.5954 81.1322 30.5113 81.337L29.37 84.1241L26.4833 84.3975C26.2712 84.418 26.092 84.5676 26.0262 84.7789C25.9603 84.9902 26.0211 85.2219 26.1816 85.368L28.3633 87.3646L27.7199 90.3217C27.6729 90.5391 27.7537 90.7639 27.9266 90.8943C28.0195 90.9643 28.1283 91 28.2379 91C28.3324 91 28.4262 90.9734 28.5104 90.9209L31 89.3682L33.4888 90.9209C33.6709 91.0352 33.9005 91.0248 34.073 90.8943C34.246 90.7635 34.3268 90.5386 34.2797 90.3217L33.6364 87.3646L35.818 85.3684C35.9785 85.2219 36.0398 84.9906 35.9739 84.7789Z" fill="#E0DDF5"/>
<path d="M22.9739 84.7789C22.9085 84.5676 22.7289 84.4175 22.5164 84.3975L19.6301 84.1241L18.4888 81.3365C18.4046 81.1322 18.213 81 18 81C17.7871 81 17.5954 81.1322 17.5113 81.337L16.37 84.1241L13.4833 84.3975C13.2712 84.418 13.092 84.5676 13.0262 84.7789C12.9603 84.9902 13.0211 85.2219 13.1816 85.368L15.3633 87.3646L14.7199 90.3217C14.6729 90.5391 14.7537 90.7639 14.9266 90.8943C15.0195 90.9643 15.1283 91 15.2379 91C15.3324 91 15.4262 90.9734 15.5104 90.9209L18 89.3682L20.4888 90.9209C20.6709 91.0352 20.9005 91.0248 21.073 90.8943C21.246 90.7635 21.3268 90.5386 21.2797 90.3217L20.6364 87.3646L22.818 85.3684C22.9785 85.2219 23.0398 84.9906 22.9739 84.7789Z" fill="#E0DDF5"/>
<path d="M9.97391 84.7789C9.90845 84.5676 9.72885 84.4175 9.51637 84.3975L6.6301 84.1241L5.48879 81.3365C5.40464 81.1322 5.21298 81 5.00004 81C4.7871 81 4.59544 81.1322 4.51129 81.337L3.36998 84.1241L0.483256 84.3975C0.271154 84.418 0.0920114 84.5676 0.0261682 84.7789C-0.0396751 84.9902 0.0211326 85.2219 0.181583 85.368L2.36326 87.3646L1.71993 90.3217C1.67286 90.5391 1.75373 90.7639 1.92662 90.8943C2.01955 90.9643 2.12827 91 2.23791 91C2.33244 91 2.4262 90.9734 2.51036 90.9209L5.00004 89.3682L7.48881 90.9209C7.67093 91.0352 7.9005 91.0248 8.073 90.8943C8.24597 90.7635 8.32676 90.5386 8.27969 90.3217L7.63636 87.3646L9.81804 85.3684C9.97849 85.2219 10.0398 84.9906 9.97391 84.7789Z" fill="#FFC107"/>
</svg>
