<svg width="20" height="19" viewBox="0 0 20 19" fill="none" xmlns="http://www.w3.org/2000/svg">
<path fill-rule="evenodd" clip-rule="evenodd" d="M16.8458 6.2571H17.0592C17.9089 6.2571 18.6 6.95197 18.6 7.80643V16.3276C18.6 17.1821 17.9089 17.877 17.0591 17.877H3.96306C3.11329 17.877 2.42223 17.1821 2.42223 16.3276V13.4319L0.824025 10.6256L0.505525 10.0665L0.505381 10.0661L0.314786 9.73133C-0.105403 8.9934 0.145534 8.04547 0.874545 7.61881L12.1081 1.04291C12.4609 0.836405 12.8733 0.780775 13.2675 0.886697C13.6636 0.993346 13.9946 1.25018 14.1997 1.60952L16.8458 6.2571ZM2.12811 11.3553L2.4223 11.8721V11.1831L2.12811 11.3553ZM2.4223 7.80643V8.49985L0.98295 9.3424C0.774878 8.97303 0.899678 8.50094 1.26259 8.28829L2.44339 7.59709L2.43872 7.63048C2.43051 7.68839 2.4223 7.7463 2.4223 7.80643ZM15.9578 6.2571L14.6775 4.00837L10.8364 6.2571H15.9578ZM12.4961 1.71243C12.6706 1.61029 12.8738 1.58193 13.0683 1.63491C13.265 1.68785 13.429 1.8157 13.5309 1.99461L13.5317 1.99603L6.25311 6.2571H4.73244L12.4961 1.71243ZM8.97066 13.2291C9.18357 13.2291 9.35585 13.0558 9.35585 12.8417C9.35585 12.6276 9.18357 12.4544 8.97066 12.4544H5.11868C4.90577 12.4544 4.73349 12.6276 4.73349 12.8417C4.73349 13.0558 4.90577 13.2291 5.11868 13.2291H8.97066ZM10.5114 15.553H5.11868C4.90577 15.553 4.73349 15.3797 4.73349 15.1657C4.73349 14.9516 4.90577 14.7783 5.11868 14.7783H10.5114C10.7244 14.7783 10.8966 14.9516 10.8966 15.1657C10.8966 15.3797 10.7244 15.553 10.5114 15.553ZM13.9782 15.3805C14.2021 15.494 14.4477 15.553 14.7005 15.553C15.5766 15.553 16.2894 14.8582 16.2894 14.0037C16.2894 13.1492 15.5766 12.4543 14.7005 12.4543C14.4477 12.4543 14.202 12.5133 13.9782 12.6268C13.7544 12.5133 13.5087 12.4543 13.256 12.4543C12.3799 12.4543 11.667 13.1492 11.667 14.0037C11.667 14.8582 12.3799 15.553 13.256 15.553C13.5088 15.553 13.7544 15.494 13.9782 15.3805Z" fill="#F77777"/>
</svg>
