<svg width="20" height="20" viewBox="0 0 20 20" fill="none" xmlns="http://www.w3.org/2000/svg">
<path fill-rule="evenodd" clip-rule="evenodd" d="M14.9607 9.99975C14.9607 12.7351 12.7353 14.9604 9.99999 14.9604C7.26464 14.9604 5.03931 12.7351 5.03931 9.99975C5.03931 7.2644 7.26464 5.03906 9.99999 5.03906C12.7353 5.03906 14.9607 7.2644 14.9607 9.99975ZM14.4942 9.99975C14.4942 7.52163 12.4781 5.50557 9.99999 5.50557C7.5219 5.50557 5.50582 7.52166 5.50582 9.99975C5.50582 12.4778 7.5219 14.4939 9.99999 14.4939C12.4781 14.4939 14.4942 12.4779 14.4942 9.99975Z" fill="#FE9C5E"/>
<path fill-rule="evenodd" clip-rule="evenodd" d="M8.49156 11.2596C8.49156 11.1308 8.38713 11.0263 8.25829 11.0263C8.12945 11.0263 8.02502 11.1307 8.02502 11.2596C8.02502 11.8912 8.77318 12.3954 9.76672 12.4642V12.7369C9.76672 12.8657 9.87115 12.9702 9.99999 12.9702C10.1288 12.9702 10.2333 12.8658 10.2333 12.7369V12.4642C11.2268 12.3954 11.975 11.8912 11.975 11.2596C11.975 10.4135 11.1704 10.0833 10.2333 9.82189V8.0033C10.9954 8.06456 11.5084 8.41913 11.5084 8.74038C11.5084 8.86919 11.6128 8.97364 11.7417 8.97364C11.8705 8.97364 11.975 8.86922 11.975 8.74038C11.975 8.1088 11.2268 7.60458 10.2333 7.53573V7.26305C10.2333 7.13424 10.1288 7.02979 9.99999 7.02979C9.87115 7.02979 9.76672 7.13421 9.76672 7.26305V7.53573C8.77318 7.60458 8.02502 8.1088 8.02502 8.74038C8.02502 9.58649 8.82954 9.91665 9.76672 10.1781V11.9967C9.00459 11.9354 8.49156 11.5808 8.49156 11.2596ZM11.5084 11.2596C11.5084 11.5808 10.9954 11.9354 10.2333 11.9967V10.3078C11.1793 10.5873 11.5084 10.8412 11.5084 11.2596ZM9.76672 8.0033C9.00459 8.06456 8.49156 8.41913 8.49156 8.74038C8.49156 9.15879 8.82065 9.41265 9.76672 9.69221V8.0033Z" fill="#FE9C5E"/>
<path d="M15.0912 4.90865C13.7313 3.54872 11.9232 2.7998 10 2.7998C7.9296 2.7998 5.99643 3.67098 4.6293 5.20449L4.75707 4.31012C4.77527 4.18257 4.68665 4.06445 4.55913 4.04622C4.43155 4.02816 4.31346 4.11665 4.29523 4.24416L4.04641 5.98586C4.03499 6.06588 4.06582 6.14612 4.12786 6.19795C4.17044 6.23347 4.22349 6.25212 4.27737 6.25212C4.30207 6.25212 4.32699 6.24821 4.35112 6.24014L5.84399 5.74252C5.96622 5.70177 6.03226 5.5697 5.99154 5.44746C5.95075 5.32523 5.81871 5.25914 5.69648 5.29992L4.94644 5.54995C6.22669 4.09415 8.0482 3.26631 10 3.26631C11.7986 3.26631 13.4895 3.96671 14.7613 5.2385C16.0331 6.51031 16.7335 8.20124 16.7335 9.9998C16.7335 11.7984 16.0331 13.4893 14.7613 14.7611C13.4895 16.0329 11.7986 16.7333 10 16.7333C9.87121 16.7333 9.76675 16.8377 9.76675 16.9666C9.76675 17.0954 9.87121 17.1998 10 17.1998C11.9232 17.1998 13.7313 16.4509 15.0912 15.091C16.4511 13.731 17.2 11.923 17.2 9.9998C17.2 8.07662 16.4511 6.26852 15.0912 4.90865Z" fill="#FE9C5E"/>
<path d="M9.03788 16.6651C8.95857 16.6537 8.87869 16.6408 8.80048 16.6268C8.67363 16.6039 8.55241 16.6883 8.5296 16.8151C8.50679 16.9419 8.59109 17.0631 8.7179 17.086C8.8016 17.101 8.88704 17.1148 8.97181 17.1269C8.98301 17.1285 8.99414 17.1293 9.00514 17.1293C9.11933 17.1293 9.21912 17.0453 9.23577 16.9291C9.25396 16.8015 9.1654 16.6833 9.03788 16.6651Z" fill="#FE9C5E"/>
<path d="M7.89787 16.3986C7.75103 16.3504 7.60394 16.2964 7.46064 16.238C7.34139 16.1894 7.20524 16.2467 7.15658 16.366C7.10798 16.4853 7.1653 16.6214 7.2846 16.6701C7.43791 16.7325 7.59527 16.7903 7.75238 16.8419C7.77654 16.8498 7.80106 16.8536 7.8252 16.8536C7.92324 16.8536 8.0145 16.7913 8.04679 16.693C8.08693 16.5706 8.02027 16.4388 7.89787 16.3986Z" fill="#FE9C5E"/>
<path d="M3.42138 11.4422C3.38845 11.2913 3.36038 11.1371 3.33796 10.9841C3.31926 10.8566 3.20091 10.7686 3.07339 10.7871C2.9459 10.8058 2.8577 10.9243 2.8764 11.0517C2.90039 11.2153 2.93037 11.3802 2.96562 11.5417C2.98944 11.6508 3.08602 11.7253 3.19329 11.7253C3.20977 11.7253 3.2265 11.7235 3.24324 11.7199C3.36907 11.6924 3.44886 11.5681 3.42138 11.4422Z" fill="#FE9C5E"/>
<path d="M3.12387 8.84941C3.1394 8.85253 3.15481 8.85403 3.17005 8.85403C3.27887 8.85403 3.37627 8.77744 3.39849 8.66666C3.42895 8.51501 3.46514 8.36251 3.50604 8.21348C3.54012 8.08925 3.46705 7.96092 3.34283 7.92683C3.21871 7.89274 3.09026 7.96584 3.05618 8.09009C3.01241 8.24948 2.97371 8.41258 2.94115 8.5748C2.91575 8.70108 2.99756 8.82407 3.12387 8.84941Z" fill="#FE9C5E"/>
<path d="M3.85913 12.7662C3.79557 12.6253 3.73617 12.4804 3.68256 12.3355C3.63787 12.2147 3.50366 12.1529 3.38286 12.1977C3.26203 12.2424 3.20033 12.3765 3.24502 12.4974C3.30234 12.6523 3.36587 12.8073 3.43388 12.9581C3.47283 13.0444 3.55771 13.0954 3.64664 13.0954C3.67871 13.0954 3.7113 13.0888 3.74244 13.0747C3.85989 13.0217 3.91209 12.8836 3.85913 12.7662Z" fill="#FE9C5E"/>
<path d="M3.0354 10.2912C3.16421 10.2902 3.26782 10.1849 3.26681 10.0561C3.26664 10.0373 3.26656 10.0185 3.26656 9.99996C3.26656 9.86355 3.27069 9.72565 3.27882 9.59004C3.28656 9.46142 3.18857 9.35092 3.05995 9.34321C2.9312 9.33539 2.82083 9.43346 2.81313 9.56208C2.80446 9.70695 2.80005 9.85427 2.80005 10.0002C2.80005 10.02 2.80013 10.0399 2.8003 10.0598C2.80131 10.1879 2.90555 10.2912 3.03354 10.2912C3.03411 10.2912 3.03478 10.2912 3.0354 10.2912Z" fill="#FE9C5E"/>
<path d="M6.62496 15.8278C6.49137 15.7502 6.35862 15.6669 6.23037 15.5801C6.12366 15.508 5.97865 15.5359 5.90645 15.6426C5.83423 15.7493 5.86219 15.8942 5.96886 15.9665C6.10597 16.0593 6.24792 16.1484 6.39077 16.2313C6.42761 16.2527 6.46786 16.2628 6.50765 16.2628C6.58809 16.2628 6.66634 16.2212 6.70962 16.1466C6.77431 16.0352 6.73639 15.8925 6.62496 15.8278Z" fill="#FE9C5E"/>
<path d="M4.29974 13.5859C4.23106 13.477 4.08703 13.4443 3.97802 13.513C3.86904 13.5818 3.83641 13.7258 3.90512 13.8348C3.99329 13.9746 4.08746 14.1132 4.18502 14.2465C4.2307 14.309 4.30163 14.3421 4.37346 14.3421C4.42127 14.3421 4.46948 14.3274 4.51099 14.2971C4.61497 14.221 4.63761 14.0751 4.56153 13.9711C4.47032 13.8463 4.38223 13.7168 4.29974 13.5859Z" fill="#FE9C5E"/>
<path d="M5.49706 15.0062C5.38211 14.9027 5.26928 14.7939 5.1617 14.6828C5.07209 14.5903 4.92446 14.5879 4.83188 14.6775C4.73932 14.7671 4.73693 14.9148 4.82656 15.0073C4.94153 15.1261 5.06213 15.2424 5.18498 15.353C5.22959 15.3931 5.28539 15.4128 5.34097 15.4128C5.40478 15.4128 5.46834 15.3868 5.51441 15.3356C5.60059 15.2398 5.5928 15.0924 5.49706 15.0062Z" fill="#FE9C5E"/>
<path d="M3.50864 7.45472C3.53879 7.46771 3.57015 7.4739 3.601 7.4739C3.69126 7.4739 3.77723 7.42119 3.81526 7.33307C3.84687 7.25989 3.88023 7.18623 3.91448 7.11418C3.96975 6.9978 3.92025 6.85869 3.8039 6.80337C3.68749 6.7481 3.54835 6.79766 3.49309 6.91396C3.45647 6.99102 3.42078 7.06977 3.38697 7.14807C3.3359 7.26633 3.39038 7.40361 3.50864 7.45472Z" fill="#FE9C5E"/>
<path fill-rule="evenodd" clip-rule="evenodd" d="M4.20178 3.15332L16.6469 15.5984L15.7983 16.4469L3.35325 4.00185L4.20178 3.15332Z" fill="#FE9C5E"/>
<path d="M18.85 9.9999C18.85 14.8876 14.8877 18.8499 10 18.8499C5.1123 18.8499 1.15002 14.8876 1.15002 9.9999C1.15002 5.11218 5.1123 1.1499 10 1.1499C14.8877 1.1499 18.85 5.11218 18.85 9.9999Z" stroke="#FE9C5E" stroke-width="1.5"/>
</svg>
