<svg width="21" height="20" viewBox="0 0 21 20" fill="none" xmlns="http://www.w3.org/2000/svg">
<path d="M1.65093 8.27195C1.78047 8.4009 1.99047 8.4009 2.12002 8.27195L3.05821 7.33747C3.18393 7.20786 3.18213 7.00183 3.05417 6.87442C2.9262 6.747 2.71928 6.74521 2.58911 6.87039L2.264 7.19444C2.51688 4.66781 3.92909 2.39965 6.0894 1.05044C6.24431 0.952656 6.29028 0.748346 6.19208 0.594099C6.09387 0.439853 5.88868 0.394081 5.73377 0.491864C3.3565 1.97754 1.82107 4.49152 1.58988 7.27669L1.18183 6.87039C1.09854 6.78452 0.975192 6.75009 0.859203 6.78032C0.743213 6.81054 0.652631 6.90074 0.62227 7.01623C0.59191 7.13172 0.626497 7.25453 0.712738 7.33747L1.65093 8.27195Z" fill="#F97674"/>
<path d="M15.4873 2.42334C15.6705 2.42334 15.819 2.27545 15.819 2.09302V1.43403C17.9114 2.98957 19.1416 5.4388 19.1365 8.03883C19.1365 8.22126 19.2851 8.36915 19.4683 8.36915C19.6515 8.36915 19.8 8.22126 19.8 8.03883C19.8052 5.34294 18.5798 2.79077 16.4693 1.10205H16.8143C16.9975 1.10205 17.146 0.954161 17.146 0.771729C17.146 0.589297 16.9975 0.441406 16.8143 0.441406H15.4873C15.3172 0.442364 15.1759 0.572523 15.1618 0.741339V0.747615C15.1618 0.756204 15.1569 0.76314 15.1569 0.771729V2.09302C15.1569 2.27494 15.3046 2.42261 15.4873 2.42334Z" fill="#F97674"/>
<path d="M4.43398 9.69043H6.9659C6.91039 9.25195 6.87717 8.81096 6.86637 8.36914H4.22034C4.24386 8.81591 4.31549 9.25888 4.43398 9.69043Z" fill="#F97674"/>
<path fill-rule="evenodd" clip-rule="evenodd" d="M13.165 14.9756C13.165 16.435 11.9768 17.6182 10.5111 17.6182C9.04597 17.6165 7.8587 16.4344 7.85706 14.9756C7.85706 13.5161 9.04529 12.333 10.5111 12.333C11.9768 12.333 13.165 13.5161 13.165 14.9756ZM9.5306 14.4848C9.61265 14.9599 10.0269 15.3068 10.5111 15.3059C10.6943 15.3059 10.8428 15.4538 10.8428 15.6362C10.8428 15.8187 10.6943 15.9666 10.5111 15.9666C10.3278 15.9666 10.1793 15.8187 10.1793 15.6362C10.1793 15.4538 10.0308 15.3059 9.84755 15.3059C9.66433 15.3059 9.5158 15.4538 9.5158 15.6362C9.51755 16.0547 9.78308 16.4269 10.1793 16.5664V16.9575C10.1793 17.14 10.3278 17.2878 10.5111 17.2878C10.6943 17.2878 10.8428 17.14 10.8428 16.9575V16.5664C11.2995 16.4063 11.5735 15.9415 11.4915 15.4664C11.4095 14.9913 10.9952 14.6444 10.5111 14.6453C10.3278 14.6453 10.1793 14.4974 10.1793 14.3149C10.1793 14.1325 10.3278 13.9846 10.5111 13.9846C10.6943 13.9846 10.8428 14.1325 10.8428 14.3149C10.8428 14.4974 10.9913 14.6453 11.1746 14.6453C11.3578 14.6453 11.5063 14.4974 11.5063 14.3149C11.5046 13.8965 11.239 13.5242 10.8428 13.3848V12.9937C10.8428 12.8112 10.6943 12.6633 10.5111 12.6633C10.3278 12.6633 10.1793 12.8112 10.1793 12.9937V13.3848C9.72263 13.5449 9.44856 14.0097 9.5306 14.4848Z" fill="#F97674"/>
<path d="M4.22461 7.7085H6.87031C6.88727 6.81824 6.99982 5.93234 7.20604 5.06592H4.96176C4.52202 5.88135 4.2702 6.78406 4.22461 7.7085H4.22461Z" fill="#F97674"/>
<path d="M13.8285 14.9756C13.8265 16.7991 12.3424 18.2768 10.511 18.2788H16.8418C16.9845 17.4477 17.6383 16.7967 18.473 16.6546V13.2966C17.6383 13.1545 16.9845 12.5035 16.8418 11.6724H10.511C12.3424 11.6744 13.8265 13.1521 13.8285 14.9756Z" fill="#F97674"/>
<path d="M4.18016 18.2788H10.5109C8.67874 18.2788 7.19344 16.7999 7.19344 14.9756C7.19344 13.1513 8.67874 11.6724 10.5109 11.6724H4.18016C4.03746 12.5035 3.38364 13.1545 2.54895 13.2966V16.6546C3.38364 16.7967 4.03746 17.4477 4.18016 18.2788Z" fill="#F97674"/>
<path d="M7.3925 4.40515C7.64328 3.53665 8.07547 2.73069 8.66078 2.04004C7.33667 2.449 6.18429 3.28003 5.3811 4.40515H7.3925Z" fill="#F97674"/>
<path d="M10.1792 9.69043V8.36914H7.53784C7.54861 8.81108 7.58305 9.25214 7.64102 9.69043H10.1792Z" fill="#F97674"/>
<path d="M10.1793 1.80615C9.333 2.01326 8.58325 3.0006 8.0979 4.40513H10.1793V1.80615Z" fill="#F97674"/>
<path d="M10.1793 5.06592H7.89451C7.67372 5.93026 7.55262 6.81684 7.53357 7.7085H10.1793V5.06592Z" fill="#F97674"/>
<path d="M10.8428 7.7085H13.4885C13.4694 6.81684 13.3483 5.93026 13.1275 5.06592H10.8428V7.7085Z" fill="#F97674"/>
<path d="M12.3624 2.04004C12.9473 2.73081 13.379 3.53676 13.6294 4.40515H15.6394C14.8369 3.28049 13.6856 2.44951 12.3624 2.04004V2.04004Z" fill="#F97674"/>
<path d="M16.588 9.69043C16.7065 9.25888 16.7781 8.81591 16.8017 8.36914H14.154C14.1432 8.81096 14.1099 9.25195 14.0544 9.69043H16.588Z" fill="#F97674"/>
<path d="M10.8428 9.69043H13.381C13.439 9.25214 13.4734 8.81108 13.4842 8.36914H10.8428V9.69043Z" fill="#F97674"/>
<path d="M10.8428 1.80615V4.40513H12.9242C12.4388 3.0006 11.6891 2.01326 10.8428 1.80615Z" fill="#F97674"/>
<path d="M13.8159 5.06592C14.0221 5.93234 14.1347 6.81824 14.1516 7.7085H16.7974C16.7518 6.78406 16.4999 5.88135 16.0602 5.06592L13.8159 5.06592Z" fill="#F97674"/>
<path fill-rule="evenodd" clip-rule="evenodd" d="M6.35377 19.6001H3.79993V11.6001H19.7999V14.2001C19.7999 14.0344 19.6691 13.9001 19.5076 13.9001C18.8619 13.9001 18.3384 13.3628 18.3384 12.7001C18.3384 12.5344 18.2075 12.4001 18.0461 12.4001H6.35377C6.19234 12.4001 6.06147 12.5344 6.06147 12.7001C6.06147 13.3628 5.53798 13.9001 4.89223 13.9001C4.7308 13.9001 4.59993 14.0344 4.59993 14.2001V17.8001C4.59993 17.9658 4.7308 18.1001 4.89223 18.1001C5.53798 18.1001 6.06147 18.6374 6.06147 19.3001C6.06147 19.4658 6.19234 19.6001 6.35377 19.6001ZM18.0461 19.6001H19.7999V17.8001C19.7999 17.9658 19.6691 18.1001 19.5076 18.1001C18.8619 18.1001 18.3384 18.6374 18.3384 19.3001C18.3384 19.4658 18.2075 19.6001 18.0461 19.6001Z" fill="#F97674"/>
</svg>
