<svg width="20" height="20" viewBox="0 0 20 20" fill="none" xmlns="http://www.w3.org/2000/svg">
<path d="M5.72601 5.51903L6.14569 5.0977L2.41488 1.35726C2.29901 1.24094 2.11122 1.24094 1.99535 1.35726C1.87948 1.47359 1.87948 1.66212 1.99535 1.77844L5.72601 5.51903Z" fill="#F77777"/>
<path d="M5.06508 6.15013L5.48475 5.72881L1.77328 2.00131C1.65741 1.88498 1.46962 1.88498 1.35375 2.00131C1.23788 2.11763 1.23788 2.30616 1.35375 2.42248L5.06508 6.15013Z" fill="#F77777"/>
<path d="M8.34507 5.5064C8.33071 4.90419 8.09736 4.33331 7.69717 3.89713L3.66753 0.494042C3.50903 0.360072 3.2748 0.370219 3.12832 0.517278C2.97246 0.673895 2.97246 0.927572 3.12832 1.08404L6.20229 4.17022C6.39082 4.35948 6.39082 4.66625 6.20229 4.85551L4.83823 6.22492C4.6497 6.41419 4.34414 6.41419 4.15561 6.22492L1.08149 3.1389C0.925633 2.98242 0.672801 2.98242 0.516941 3.1389C0.370457 3.28595 0.360349 3.5211 0.493797 3.68022L3.88359 7.72566C4.31806 8.12742 4.88672 8.36169 5.48657 8.37625L6.652 8.37978C7.19033 8.38154 7.70361 8.60919 8.06762 9.00742L17.3361 19.223C17.7891 19.7149 18.6349 19.6535 19.1065 19.1798C19.5784 18.7061 19.6396 17.857 19.1496 17.4024L8.97392 8.09757C8.57724 7.73213 8.35049 7.21684 8.34873 6.6764L8.34507 5.5064Z" fill="#F77777"/>
<path d="M15.9612 7.6297C16.6973 7.56735 17.3662 7.17529 17.7823 6.56249L18.7017 5.20808C19.4548 4.09882 19.7507 2.7397 19.5272 1.41602C19.4907 1.19955 19.3814 1.01029 19.2267 0.872641C19.0721 0.734994 18.8718 0.648817 18.6533 0.638229C17.3175 0.574258 16.0089 1.03205 15.0023 1.91573L13.7731 2.99441C13.2169 3.48264 12.9095 4.19632 12.9361 4.93749L13.0025 6.10543C13.0329 6.64514 12.8377 7.17323 12.4634 7.56191L2.86268 17.4634C2.40082 17.9468 2.51273 18.7907 3.01195 19.235C3.51131 19.6794 4.35917 19.6897 4.78177 19.1715L13.4224 8.41543C13.762 7.99588 14.2608 7.73793 14.7981 7.70367L15.9612 7.6297Z" fill="#F77777"/>
</svg>
