<svg width="20" height="20" viewBox="0 0 20 20" fill="none" xmlns="http://www.w3.org/2000/svg">
<path d="M5.72601 5.53807L6.14569 5.11675L2.41488 1.37631C2.29901 1.25998 2.11122 1.25998 1.99535 1.37631C1.87948 1.49263 1.87948 1.68116 1.99535 1.79748L5.72601 5.53807Z" fill="#6155CC"/>
<path d="M5.06508 6.16917L5.48475 5.74785L1.77328 2.02035C1.65741 1.90402 1.46962 1.90402 1.35375 2.02035C1.23788 2.13667 1.23788 2.3252 1.35375 2.44152L5.06508 6.16917Z" fill="#6155CC"/>
<path d="M8.34507 5.52544C8.33071 4.92323 8.09736 4.35235 7.69717 3.91617L3.66753 0.513085C3.50903 0.379115 3.2748 0.389262 3.12832 0.536321C2.97246 0.692938 2.97246 0.946615 3.12832 1.10309L6.20229 4.18926C6.39082 4.37853 6.39082 4.68529 6.20229 4.87456L4.83823 6.24397C4.6497 6.43323 4.34414 6.43323 4.15561 6.24397L1.08149 3.15794C0.925633 3.00147 0.672801 3.00147 0.516941 3.15794C0.370457 3.305 0.360349 3.54014 0.493797 3.69926L3.88359 7.7447C4.31806 8.14647 4.88672 8.38073 5.48657 8.39529L6.652 8.39882C7.19033 8.40059 7.70361 8.62823 8.06762 9.02647L17.3361 19.2421C17.7891 19.734 18.6349 19.6725 19.1065 19.1988C19.5784 18.7251 19.6396 17.876 19.1496 17.4215L8.97392 8.11661C8.57724 7.75117 8.35049 7.23588 8.34873 6.69544L8.34507 5.52544Z" fill="#6155CC"/>
<path d="M15.9612 7.64874C16.6973 7.58639 17.3662 7.19433 17.7823 6.58154L18.7017 5.22712C19.4548 4.11786 19.7507 2.75874 19.5272 1.43507C19.4907 1.2186 19.3814 1.02933 19.2267 0.891684C19.0721 0.754036 18.8718 0.66786 18.6533 0.657272C17.3175 0.593301 16.0089 1.0511 15.0023 1.93477L13.7731 3.01345C13.2169 3.50168 12.9095 4.21536 12.9361 4.95654L13.0025 6.12448C13.0329 6.66418 12.8377 7.19227 12.4634 7.58095L2.86268 17.4824C2.40082 17.9658 2.51273 18.8098 3.01195 19.254C3.51131 19.6984 4.35917 19.7087 4.78177 19.1905L13.4224 8.43448C13.762 8.01492 14.2608 7.75698 14.7981 7.72271L15.9612 7.64874Z" fill="#6155CC"/>
</svg>
