<svg width="17" height="5" viewBox="0 0 17 5" fill="none" xmlns="http://www.w3.org/2000/svg">
<path fill-rule="evenodd" clip-rule="evenodd" d="M2 4.3999C3.10457 4.3999 4 3.50447 4 2.3999C4 1.29533 3.10457 0.399902 2 0.399902C0.89543 0.399902 0 1.29533 0 2.3999C0 3.50447 0.89543 4.3999 2 4.3999Z" fill="#2D3143"/>
<path fill-rule="evenodd" clip-rule="evenodd" d="M8.40002 4.3999C9.50459 4.3999 10.4 3.50447 10.4 2.3999C10.4 1.29533 9.50459 0.399902 8.40002 0.399902C7.29545 0.399902 6.40002 1.29533 6.40002 2.3999C6.40002 3.50447 7.29545 4.3999 8.40002 4.3999Z" fill="#2D3143"/>
<path fill-rule="evenodd" clip-rule="evenodd" d="M14.8 4.3999C15.9046 4.3999 16.8 3.50447 16.8 2.3999C16.8 1.29533 15.9046 0.399902 14.8 0.399902C13.6954 0.399902 12.8 1.29533 12.8 2.3999C12.8 3.50447 13.6954 4.3999 14.8 4.3999Z" fill="#2D3143"/>
</svg>
