<svg width="20" height="20" viewBox="0 0 20 20" fill="none" xmlns="http://www.w3.org/2000/svg">
<path fill-rule="evenodd" clip-rule="evenodd" d="M18.418 17.3408C19.3295 17.0845 20 16.2463 20 15.2539C20 14.0585 19.0275 13.0859 17.832 13.0859C16.6366 13.0859 15.6641 14.0585 15.6641 15.2539C15.6641 16.2463 16.3345 17.0845 17.2461 17.3408V18.8281H14.7982V3.08594H11.541V0H10.4869V1.10777H9.51313V0H8.45898V3.08594H5.20188V18.8281H2.75391V17.4189C3.66547 17.1626 4.33594 16.3244 4.33594 15.332C4.33594 14.1366 3.3634 13.1641 2.16797 13.1641C0.972539 13.1641 0 14.1366 0 15.332C0 16.3244 0.670469 17.1626 1.58203 17.4189V18.8281H0V20H20V18.8281H18.418V17.3408ZM11.0807 7.6432V5.97656H12.2526V7.64324L11.0807 7.6432ZM12.2526 8.8932H11.0807V10.5599H12.2526V8.8932ZM11.0807 11.8099H12.2526V13.4766H11.0807V11.8099ZM10.4869 1.97434H9.51313V3.08594H10.4869V1.97434ZM7.74738 7.6432V5.97656H8.91926V7.64324L7.74738 7.6432ZM8.91926 8.8932H7.74738V10.5599H8.91926V8.8932ZM7.74738 11.8099H8.91926V13.4766H7.74738V11.8099ZM11.1263 18.8281H12.2981V15.6641H7.70184V18.8281H8.87371V16.8359H11.1263V18.8281Z" fill="#3EC8BC"/>
</svg>
