<svg width="19" height="19" viewBox="0 0 19 19" fill="none" xmlns="http://www.w3.org/2000/svg">
<path d="M17.631 16.3865H1.08014C0.937702 16.3865 0.822235 16.5019 0.822235 16.6444V17.6217C0.822235 17.7641 0.937702 17.8796 1.08014 17.8796H17.631C17.7734 17.8796 17.8889 17.7641 17.8889 17.6217V16.6444C17.8889 16.5019 17.7734 16.3865 17.631 16.3865Z" fill="#3EC8BC"/>
<path d="M1.77859 14.6667V15.1144C1.77859 15.2577 1.89476 15.3739 2.03809 15.3739H16.6731C16.8164 15.3739 16.9326 15.2577 16.9326 15.1144V14.6667C16.9326 14.5234 16.8164 14.4072 16.6731 14.4072H2.03809C1.89476 14.4072 1.77859 14.5234 1.77859 14.6667Z" fill="#3EC8BC"/>
<path d="M1.31514 6.36933H17.396C17.517 6.36933 17.6151 6.27123 17.6151 6.1502V5.4818C17.6151 5.3608 17.517 5.2627 17.396 5.2627H1.31514C1.19411 5.2627 1.09604 5.3608 1.09604 5.48183V6.15023C1.09604 6.27123 1.19411 6.36933 1.31514 6.36933Z" fill="#3EC8BC"/>
<path d="M2.95637 4.25037H15.7548C15.8796 4.25037 15.9192 4.08197 15.8074 4.02637L9.40821 0.844137C9.37507 0.82767 9.33611 0.82767 9.30297 0.844137L2.90374 4.02637C2.79197 4.08197 2.83151 4.25037 2.95637 4.25037Z" fill="#3EC8BC"/>
<path d="M2.55213 12.5535C2.4599 12.5535 2.3851 12.6283 2.3851 12.7205V13.2278C2.3851 13.3201 2.45987 13.3949 2.55213 13.3949H5.35587C5.4481 13.3949 5.5229 13.3201 5.5229 13.2278V12.7205C5.5229 12.6283 5.44813 12.5535 5.35587 12.5535H4.78987V8.29327H5.35587C5.4481 8.29327 5.5229 8.2185 5.5229 8.12624V7.54887C5.5229 7.45664 5.44813 7.38184 5.35587 7.38184H2.55213C2.4599 7.38184 2.3851 7.4566 2.3851 7.54887V8.12624C2.3851 8.21847 2.45987 8.29327 2.55213 8.29327H3.11813V12.5535H2.55213Z" fill="#3EC8BC"/>
<path d="M7.95372 12.5535C7.86148 12.5535 7.78668 12.6283 7.78668 12.7205V13.2278C7.78668 13.3201 7.86145 13.3949 7.95372 13.3949H10.7574C10.8497 13.3949 10.9245 13.3201 10.9245 13.2278V12.7205C10.9245 12.6283 10.8497 12.5535 10.7574 12.5535H10.1914V8.29327H10.7574C10.8497 8.29327 10.9245 8.2185 10.9245 8.12624V7.54887C10.9245 7.45664 10.8497 7.38184 10.7574 7.38184H7.95372C7.86148 7.38184 7.78668 7.4566 7.78668 7.54887V8.12624C7.78668 8.21847 7.86145 8.29327 7.95372 8.29327H8.51972V12.5535H7.95372Z" fill="#3EC8BC"/>
<path d="M13.3553 12.5535C13.263 12.5535 13.1882 12.6283 13.1882 12.7205V13.2278C13.1882 13.3201 13.263 13.3949 13.3553 13.3949H16.326V12.7205C16.326 12.6283 16.2512 12.5535 16.159 12.5535H15.593V8.29327H16.159C16.2512 8.29327 16.326 8.2185 16.326 8.12624V7.54887C16.326 7.45664 16.2512 7.38184 16.159 7.38184H13.3552C13.263 7.38184 13.1882 7.4566 13.1882 7.54887V8.12624C13.1882 8.21847 13.263 8.29327 13.3552 8.29327H13.9212V12.5535H13.3553Z" fill="#3EC8BC"/>
</svg>
