<svg width="20" height="20" viewBox="0 0 20 20" fill="none" xmlns="http://www.w3.org/2000/svg">
<path fill-rule="evenodd" clip-rule="evenodd" d="M16.7883 3.21165C14.975 1.39849 12.5643 0.399902 10 0.399902C7.43577 0.399902 5.02501 1.39849 3.21177 3.21165C1.39861 5.02489 0.400024 7.43565 0.400024 9.9999C0.400024 12.5642 1.39861 14.9749 3.21177 16.7882C5.02501 18.6013 7.43577 19.5999 10 19.5999C12.5643 19.5999 14.975 18.6013 16.7883 16.7882C18.6014 14.9749 19.6 12.5642 19.6 9.9999C19.6 7.43565 18.6014 5.02489 16.7883 3.21165ZM18.475 9.9999C18.475 12.1345 17.6814 14.087 16.3743 15.5787L12.2018 11.4062L9.38926 8.59365L4.42126 3.62561C5.91297 2.31844 7.86545 1.5249 10 1.5249C14.6732 1.5249 18.475 5.32677 18.475 9.9999ZM3.62577 4.4211C2.3186 5.91282 1.52502 7.86533 1.52502 9.9999C1.52502 14.673 5.32689 18.4749 10 18.4749C12.1346 18.4749 14.0871 17.6814 15.5788 16.3742L10.6108 11.4062H7.56252V8.59365H7.79829L3.62577 4.4211Z" fill="#3EC8BC"/>
<path d="M2.6875 9.15625V10.8438C2.6875 11.1544 2.93935 11.4062 3.25 11.4062H6.4375V8.59375H3.25C2.93935 8.59375 2.6875 8.8456 2.6875 9.15625Z" fill="#3EC8BC"/>
<path d="M15.4375 11.4062H16.75C17.0606 11.4062 17.3125 11.1544 17.3125 10.8438V9.15625C17.3125 8.8456 17.0606 8.59375 16.75 8.59375H15.4375V11.4062Z" fill="#3EC8BC"/>
<path d="M14.5 6.4375C14.8102 6.4375 15.0625 6.68984 15.0625 7C15.0625 7.31065 15.3144 7.5625 15.625 7.5625C15.9356 7.5625 16.1875 7.31065 16.1875 7C16.1875 6.06951 15.4305 5.3125 14.5 5.3125C14.1898 5.3125 13.9375 5.06016 13.9375 4.75C13.9375 4.43935 13.6856 4.1875 13.375 4.1875C13.0644 4.1875 12.8125 4.43935 12.8125 4.75C12.8125 5.68049 13.5695 6.4375 14.5 6.4375Z" fill="#3EC8BC"/>
<path d="M14.3125 11.4062V8.59375H10.9802L13.7927 11.4062H14.3125Z" fill="#3EC8BC"/>
</svg>
