<svg width="20" height="20" viewBox="0 0 20 20" fill="none" xmlns="http://www.w3.org/2000/svg">
<path d="M18 9.19971H2.00004C1.11762 9.19971 0.400024 9.91731 0.400024 10.7997C0.400024 11.6821 1.11762 12.3997 2.00004 12.3997H18C18.8824 12.3997 19.6 11.6821 19.6 10.7997C19.6 9.91731 18.8824 9.19971 18 9.19971Z" fill="#34C9BD"/>
<path d="M14.4 7.6001C13.2976 7.6001 12.4 8.4977 12.4 9.60009C12.4 9.82089 12.5792 10.0001 12.8 10.0001C13.0208 10.0001 13.2 9.82089 13.2 9.60009H15.6C15.6 9.82089 15.7793 10.0001 16.0001 10.0001C16.2209 10.0001 16.4001 9.82089 16.4001 9.60009C16.4 8.4977 15.5024 7.6001 14.4 7.6001Z" fill="#34C9BD"/>
<path d="M10.4976 9.55012L10.172 6.95171C10.0472 5.95252 9.19439 5.19971 8.18718 5.19971H7.6V6.39971C7.6 6.62051 7.42079 6.79972 7.19999 6.79972C6.97919 6.79972 6.79998 6.62051 6.79998 6.39971V5.19971H6.21276C5.20638 5.19971 4.35276 5.95252 4.22796 6.95171L3.90318 9.55012C3.87599 9.76931 4.03116 9.96933 4.25039 9.99652C4.4728 10.0221 4.66878 9.86853 4.69679 9.64931L4.7032 9.59969H6.80001V7.99968C6.80001 7.77888 6.97923 7.59967 7.20003 7.59967C7.42083 7.59967 7.6 7.77892 7.6 7.99972V9.59973H9.69681L9.70323 9.64934C9.72884 9.85173 9.90081 9.99974 10.1 9.99974C10.1168 9.99974 10.1336 9.99896 10.1504 9.99656C10.3696 9.96929 10.5248 9.76931 10.4976 9.55012Z" fill="#34C9BD"/>
<path d="M7.2 4.39988C8.30456 4.39988 9.19999 3.50445 9.19999 2.39989C9.19999 1.29533 8.30456 0.399902 7.2 0.399902C6.09544 0.399902 5.20001 1.29533 5.20001 2.39989C5.20001 3.50445 6.09544 4.39988 7.2 4.39988Z" fill="#34C9BD"/>
<path d="M17.6441 11.6025C17.4288 11.5793 17.2272 11.7361 17.2025 11.9561L17.1977 12.0001H2.80245L2.79765 11.9561C2.77365 11.7369 2.58004 11.5785 2.35605 11.6025C2.13687 11.6273 1.97847 11.8249 2.00247 12.0441L2.80245 19.2441C2.82484 19.4473 2.99607 19.6001 3.20007 19.6001H16.8001C17.0041 19.6001 17.1753 19.4473 17.1977 19.2441L17.9977 12.0441C18.0216 11.8249 17.8641 11.6273 17.6441 11.6025Z" fill="#34C9BD"/>
<path d="M14.4 6.7998C14.1792 6.7998 14 6.97902 14 7.19982V7.9998C14 8.2206 14.1792 8.39982 14.4 8.39982C14.6208 8.39982 14.8 8.2206 14.8 7.9998V7.19982C14.8 6.97898 14.6208 6.7998 14.4 6.7998Z" fill="#34C9BD"/>
</svg>
