<svg width="24" height="20" viewBox="0 0 24 20" fill="none" xmlns="http://www.w3.org/2000/svg">
<path d="M11.9563 19.5546C12.7537 19.5546 13.4001 18.8824 13.4001 18.0532C13.4001 17.224 12.7537 16.5518 11.9563 16.5518C11.159 16.5518 10.5126 17.224 10.5126 18.0532C10.5126 18.8824 11.159 19.5546 11.9563 19.5546Z" fill="#6155CC"/>
<path d="M22.9652 5.37571C20.0895 2.16708 16.1954 0.399948 11.9999 0.399902C7.80472 0.399948 3.91066 2.16708 1.03493 5.37571C0.705492 5.74333 0.724961 6.31914 1.07846 6.66179C1.432 7.00438 1.98566 6.98418 2.31514 6.61652C4.85614 3.78129 8.29559 2.21985 12.0002 2.21981C15.7045 2.21985 19.144 3.78129 21.685 6.61652C21.8573 6.80879 22.091 6.90606 22.3253 6.90606C22.5389 6.90606 22.753 6.82517 22.9217 6.66179C23.2752 6.3191 23.2947 5.74333 22.9652 5.37571Z" fill="#6155CC"/>
<path d="M19.7522 9.13346C17.6265 6.90617 14.8734 5.6796 11.9999 5.67969C9.12575 5.67973 6.37256 6.90635 4.24753 9.13355C3.90716 9.4903 3.9093 10.0664 4.25235 10.4204C4.59539 10.7744 5.1494 10.7721 5.48977 10.4154C7.28374 8.53516 9.59575 7.49964 11.9999 7.49959C14.4034 7.4995 16.7155 8.53507 18.5101 10.4155C18.6811 10.5947 18.9061 10.6844 19.1312 10.6844C19.3539 10.6844 19.5769 10.5964 19.7476 10.4203C20.0905 10.0663 20.0926 9.49016 19.7522 9.13346Z" fill="#6155CC"/>
<path d="M16.2503 12.9024C15.112 11.7295 13.4802 11.001 11.9918 11.001C11.9916 11.001 11.9913 11.001 11.9911 11.001H11.9281C11.9278 11.001 11.9277 11.001 11.9274 11.001C10.4389 11.001 8.80702 11.7296 7.66869 12.9024C7.32542 13.2561 7.32284 13.8322 7.66296 14.1893C7.83406 14.3688 8.05929 14.4588 8.28456 14.4588C8.50711 14.4588 8.72976 14.371 8.90034 14.1953C9.71072 13.3603 10.8988 12.8209 11.9275 12.8209C11.9276 12.8209 11.9278 12.8209 11.9279 12.8209H11.9912C11.9914 12.8209 11.9914 12.8209 11.9916 12.8209C13.0201 12.8209 14.2083 13.3603 15.0186 14.1953C15.3619 14.5489 15.916 14.5464 16.2561 14.1893C16.5962 13.8323 16.5936 13.2561 16.2503 12.9024Z" fill="#6155CC"/>
</svg>
