<svg width="24" height="20" viewBox="0 0 24 20" fill="none" xmlns="http://www.w3.org/2000/svg">
<path d="M11.9563 19.5771C12.7537 19.5771 13.4001 18.9049 13.4001 18.0756C13.4001 17.2464 12.7537 16.5742 11.9563 16.5742C11.159 16.5742 10.5126 17.2464 10.5126 18.0756C10.5126 18.9049 11.159 19.5771 11.9563 19.5771Z" fill="#FE9C5E"/>
<path d="M22.9652 5.39865C20.0895 2.19003 16.1954 0.422897 11.9999 0.422852C7.80472 0.422897 3.91066 2.19003 1.03493 5.39865C0.705492 5.76628 0.724961 6.34209 1.07846 6.68474C1.432 7.02733 1.98566 7.00713 2.31514 6.63947C4.85614 3.80424 8.29559 2.2428 12.0002 2.24276C15.7045 2.2428 19.144 3.80424 21.685 6.63947C21.8573 6.83174 22.091 6.92901 22.3253 6.92901C22.5389 6.92901 22.753 6.84812 22.9217 6.68474C23.2752 6.34205 23.2947 5.76628 22.9652 5.39865Z" fill="#FE9C5E"/>
<path d="M19.7522 9.15641C17.6265 6.92912 14.8734 5.70255 11.9999 5.70264C9.12575 5.70268 6.37256 6.9293 4.24753 9.1565C3.90716 9.51325 3.9093 10.0894 4.25235 10.4434C4.59539 10.7973 5.1494 10.7951 5.48977 10.4383C7.28374 8.55811 9.59575 7.52259 11.9999 7.52254C14.4034 7.52245 16.7155 8.55802 18.5101 10.4384C18.6811 10.6177 18.9061 10.7074 19.1312 10.7074C19.3539 10.7074 19.5769 10.6194 19.7476 10.4433C20.0905 10.0892 20.0926 9.51311 19.7522 9.15641Z" fill="#FE9C5E"/>
<path d="M16.2505 12.9249C15.1121 11.752 13.4803 11.0234 11.9919 11.0234C11.9917 11.0234 11.9914 11.0234 11.9912 11.0234H11.9282C11.9279 11.0234 11.9278 11.0234 11.9275 11.0234C10.439 11.0234 8.80714 11.752 7.66881 12.9249C7.32555 13.2786 7.32296 13.8547 7.66308 14.2117C7.83418 14.3913 8.05941 14.4813 8.28468 14.4813C8.50723 14.4813 8.72988 14.3935 8.90046 14.2177C9.71084 13.3828 10.899 12.8433 11.9276 12.8433C11.9277 12.8433 11.9279 12.8433 11.928 12.8433H11.9914C11.9915 12.8433 11.9916 12.8433 11.9917 12.8433C13.0203 12.8433 14.2085 13.3828 15.0188 14.2177C15.362 14.5714 15.9161 14.5688 16.2562 14.2117C16.5963 13.8548 16.5938 13.2786 16.2505 12.9249Z" fill="#FE9C5E"/>
</svg>
